<svg id="favicon" xmlns="http://www.w3.org/2000/svg" xmlns:xlink="http://www.w3.org/1999/xlink" viewBox="0 0 1000 1000"><defs><style>.cls-1{fill:#ccc;}.cls-2{fill:url(#linear-gradient);}.cls-3{fill:#00bd7e;}</style><linearGradient id="linear-gradient" x1="173.13" y1="805.39" x2="829.76" y2="197.93" gradientTransform="matrix(1, 0, 0, -1, 0, 1002)" gradientUnits="userSpaceOnUse"><stop offset="0" stop-color="#303030"/><stop offset="1" stop-color="#0b0b0b"/></linearGradient></defs><circle id="circle" class="cls-1" cx="500" cy="499.5" r="489.5"/><circle id="gradient" class="cls-2" cx="500" cy="499" r="458"/><g id="chain"><path class="cls-3" d="M772.86,728,741.5,696.59c-12.55-12.54-31.36-12.54-43.91,0s-12.54,31.36,0,43.91L729,771.86c6.28,6.28,15.69,9.41,22,9.41s15.68-3.13,22-9.41C785.41,759.32,785.41,740.5,772.86,728Z"/><path class="cls-3" d="M562.73,812.64c0,18.81,12.54,31.36,31.36,31.36s31.36-12.55,31.36-31.36V749.91c0-18.82-12.54-31.36-31.36-31.36s-31.36,12.54-31.36,31.36Z"/><path class="cls-3" d="M813.64,561.73H750.91c-18.82,0-31.36,12.54-31.36,31.36s12.54,31.36,31.36,31.36h62.73c18.81,0,31.36-12.54,31.36-31.36S832.45,561.73,813.64,561.73Z"/><path class="cls-3" d="M772.86,386.09q0-65.86-47-112.91t-112.91-47q-65.86,0-112.91,47l-69,69c-12.55,12.55-12.55,31.37,0,43.91s31.36,12.55,43.91,0l69-69c37.64-37.64,100.36-37.64,138,0a98.44,98.44,0,0,1,0,138l-69,69c-12.55,12.55-12.55,31.36,0,43.91,6.27,6.27,15.68,9.41,22,9.41s15.69-3.14,22-9.41l69-69Q772.86,452,772.86,386.09Z"/><path class="cls-3" d="M227.14,611.91q0,65.87,47,112.91t112.91,47q65.87,0,112.91-47l69-69c12.55-12.55,12.55-31.37,0-43.91s-31.36-12.55-43.91,0l-69,69c-37.64,37.64-100.36,37.64-138,0a98.44,98.44,0,0,1,0-138l69-69c12.55-12.55,12.55-31.36,0-43.91s-31.36-12.55-43.91,0l-69,69Q227.14,546,227.14,611.91Z"/><path class="cls-3" d="M302.41,257.5l-31.36-31.36c-12.55-12.55-31.37-12.55-43.91,0s-12.55,31.36,0,43.91l31.36,31.36c6.27,6.27,12.55,9.41,21.95,9.41s15.69-3.14,22-9.41C315,288.86,315,270.05,302.41,257.5Z"/><path class="cls-3" d="M437.27,248.09V185.36c0-18.81-12.54-31.36-31.36-31.36s-31.36,12.55-31.36,31.36v62.73c0,18.82,12.54,31.36,31.36,31.36S437.27,266.91,437.27,248.09Z"/><path class="cls-3" d="M249.09,436.27c18.82,0,31.36-12.54,31.36-31.36s-12.54-31.36-31.36-31.36H186.36c-18.81,0-31.36,12.54-31.36,31.36s12.55,31.36,31.36,31.36Z"/></g></svg>