<?xml version="1.0" encoding="UTF-8"?>
<svg id="transparent" xmlns="http://www.w3.org/2000/svg" viewBox="0 0 1000 1000">
  <defs>
    <style>
      .cls-1 {
        fill: #00bd7e;
      }
    </style>
  </defs>
  <g id="chain">
    <path class="cls-1" d="m886.23,824.08l-44.39-44.39c-17.76-17.76-44.39-17.76-62.15,0s-17.76,44.39,0,62.15l44.39,44.39c8.88,8.88,22.2,13.32,31.08,13.32s22.2-4.44,31.08-13.32c17.76-17.76,17.76-44.39,0-62.15Z"/>
    <path class="cls-1" d="m588.79,943.94c0,26.64,17.76,44.39,44.39,44.39s44.39-17.76,44.39-44.39v-88.79c0-26.64-17.76-44.39-44.39-44.39s-44.39,17.76-44.39,44.39v88.79Z"/>
    <path class="cls-1" d="m943.94,588.79h-88.79c-26.64,0-44.39,17.76-44.39,44.39s17.76,44.39,44.39,44.39h88.79c26.64,0,44.39-17.76,44.39-44.39s-17.76-44.39-44.39-44.39Z"/>
    <path class="cls-1" d="m886.23,340.18c0-62.15-22.2-115.42-66.59-159.82-44.39-44.39-97.67-66.59-159.82-66.59s-115.42,22.2-159.82,66.59l-97.67,97.67c-17.76,17.76-17.76,44.39,0,62.15s44.39,17.76,62.15,0l97.67-97.67c53.27-53.27,142.06-53.27,195.33,0,26.64,26.64,39.95,62.15,39.95,97.67s-13.32,71.03-39.95,97.67l-97.67,97.67c-17.76,17.76-17.76,44.39,0,62.15,8.88,8.88,22.2,13.32,31.08,13.32s22.2-4.44,31.08-13.32l97.67-97.67c44.39-44.39,66.59-97.67,66.59-159.82Z"/>
    <path class="cls-1" d="m113.77,659.82c0,62.15,22.2,115.42,66.59,159.82,44.39,44.39,97.67,66.59,159.82,66.59s115.42-22.2,159.82-66.59l97.67-97.67c17.76-17.76,17.76-44.39,0-62.15s-44.39-17.76-62.15,0l-97.67,97.67c-53.27,53.27-142.06,53.27-195.33,0-26.64-26.64-39.95-62.15-39.95-97.67s13.32-71.03,39.95-97.67l97.67-97.67c17.76-17.76,17.76-44.39,0-62.15s-44.39-17.76-62.15,0l-97.67,97.67c-44.39,44.39-66.59,97.67-66.59,159.82Z"/>
    <path class="cls-1" d="m220.32,158.17l-44.39-44.39c-17.76-17.76-44.39-17.76-62.15,0-17.76,17.76-17.76,44.39,0,62.15l44.39,44.39c8.88,8.88,17.76,13.32,31.08,13.32s22.2-4.44,31.08-13.32c17.76-17.76,17.76-44.39,0-62.15Z"/>
    <path class="cls-1" d="m411.21,144.85V56.06c0-26.64-17.76-44.39-44.39-44.39s-44.39,17.76-44.39,44.39v88.79c0,26.64,17.76,44.39,44.39,44.39s44.39-17.76,44.39-44.39Z"/>
    <path class="cls-1" d="m144.85,411.21c26.64,0,44.39-17.76,44.39-44.39s-17.76-44.39-44.39-44.39H56.06c-26.64,0-44.39,17.76-44.39,44.39s17.76,44.39,44.39,44.39h88.79Z"/>
  </g>
</svg>