<?xml version="1.0" encoding="UTF-8"?>
<svg id="pwa-favicon" xmlns="http://www.w3.org/2000/svg" viewBox="0 0 1000 1000">
  <defs>
    <style>
      .cls-1 {
        fill: #00bd7e;
      }
    </style>
  </defs>
  <g id="chain">
    <path class="cls-1" d="m772.86,727.95l-31.36-31.36c-12.55-12.55-31.36-12.55-43.91,0s-12.55,31.36,0,43.91l31.36,31.36c6.27,6.27,15.68,9.41,21.95,9.41s15.68-3.14,21.95-9.41c12.55-12.55,12.55-31.36,0-43.91Z"/>
    <path class="cls-1" d="m562.73,812.64c0,18.82,12.55,31.36,31.36,31.36s31.36-12.55,31.36-31.36v-62.73c0-18.82-12.55-31.36-31.36-31.36s-31.36,12.55-31.36,31.36v62.73Z"/>
    <path class="cls-1" d="m813.64,561.73h-62.73c-18.82,0-31.36,12.55-31.36,31.36s12.55,31.36,31.36,31.36h62.73c18.82,0,31.36-12.55,31.36-31.36s-12.55-31.36-31.36-31.36Z"/>
    <path class="cls-1" d="m772.86,386.09c0-43.91-15.68-81.55-47.05-112.91s-69-47.05-112.91-47.05-81.55,15.68-112.91,47.05l-69,69c-12.55,12.55-12.55,31.36,0,43.91,12.55,12.55,31.36,12.55,43.91,0l69-69c37.64-37.64,100.36-37.64,138,0,18.82,18.82,28.23,43.91,28.23,69s-9.41,50.18-28.23,69l-69,69c-12.55,12.55-12.55,31.36,0,43.91,6.27,6.27,15.68,9.41,21.95,9.41s15.68-3.14,21.95-9.41l69-69c31.36-31.36,47.05-69,47.05-112.91Z"/>
    <path class="cls-1" d="m227.14,611.91c0,43.91,15.68,81.55,47.05,112.91,31.36,31.36,69,47.05,112.91,47.05s81.55-15.68,112.91-47.05l69-69c12.55-12.55,12.55-31.36,0-43.91s-31.36-12.55-43.91,0l-69,69c-37.64,37.64-100.36,37.64-138,0-18.82-18.82-28.23-43.91-28.23-69s9.41-50.18,28.23-69l69-69c12.55-12.55,12.55-31.36,0-43.91s-31.36-12.55-43.91,0l-69,69c-31.36,31.36-47.05,69-47.05,112.91Z"/>
    <path class="cls-1" d="m302.41,257.5l-31.36-31.36c-12.55-12.55-31.36-12.55-43.91,0-12.55,12.55-12.55,31.36,0,43.91l31.36,31.36c6.27,6.27,12.55,9.41,21.95,9.41s15.68-3.14,21.95-9.41c12.55-12.55,12.55-31.36,0-43.91Z"/>
    <path class="cls-1" d="m437.27,248.09v-62.73c0-18.82-12.55-31.36-31.36-31.36s-31.36,12.55-31.36,31.36v62.73c0,18.82,12.55,31.36,31.36,31.36s31.36-12.55,31.36-31.36Z"/>
    <path class="cls-1" d="m249.09,436.27c18.82,0,31.36-12.55,31.36-31.36s-12.55-31.36-31.36-31.36h-62.73c-18.82,0-31.36,12.55-31.36,31.36s12.55,31.36,31.36,31.36h62.73Z"/>
  </g>
</svg>