<svg xmlns="http://www.w3.org/2000/svg" viewBox="0 0 1000 1000"><defs><style>.cls-1{fill:#00bd7e;}</style></defs><g id="logo"><g id="chain"><path class="cls-1" d="M772.86,728.45,741.5,697.09c-12.55-12.54-31.36-12.54-43.91,0s-12.54,31.36,0,43.91L729,772.36c6.28,6.28,15.69,9.41,22,9.41s15.68-3.13,22-9.41C785.41,759.82,785.41,741,772.86,728.45Z"/><path class="cls-1" d="M562.73,813.14c0,18.81,12.54,31.36,31.36,31.36s31.36-12.55,31.36-31.36V750.41c0-18.82-12.54-31.36-31.36-31.36s-31.36,12.54-31.36,31.36Z"/><path class="cls-1" d="M813.64,562.23H750.91c-18.82,0-31.36,12.54-31.36,31.36S732.09,625,750.91,625h62.73c18.81,0,31.36-12.54,31.36-31.36S832.45,562.23,813.64,562.23Z"/><path class="cls-1" d="M772.86,386.59q0-65.86-47-112.91t-112.91-47q-65.86,0-112.91,47l-69,69c-12.55,12.55-12.55,31.37,0,43.91s31.36,12.55,43.91,0l69-69c37.64-37.64,100.36-37.64,138,0a98.44,98.44,0,0,1,0,138l-69,69c-12.55,12.55-12.55,31.36,0,43.91,6.27,6.27,15.68,9.41,22,9.41s15.69-3.14,22-9.41l69-69Q772.86,452.46,772.86,386.59Z"/><path class="cls-1" d="M227.14,612.41q0,65.87,47,112.91t112.91,47q65.87,0,112.91-47l69-69c12.55-12.55,12.55-31.37,0-43.91s-31.36-12.55-43.91,0l-69,69c-37.64,37.64-100.36,37.64-138,0a98.44,98.44,0,0,1,0-138l69-69c12.55-12.55,12.55-31.36,0-43.91s-31.36-12.55-43.91,0l-69,69Q227.14,546.54,227.14,612.41Z"/><path class="cls-1" d="M302.41,258l-31.36-31.36c-12.55-12.55-31.37-12.55-43.91,0s-12.55,31.36,0,43.91l31.36,31.36c6.27,6.27,12.55,9.41,21.95,9.41s15.69-3.14,22-9.41C315,289.36,315,270.55,302.41,258Z"/><path class="cls-1" d="M437.27,248.59V185.86c0-18.81-12.54-31.36-31.36-31.36s-31.36,12.55-31.36,31.36v62.73c0,18.82,12.54,31.36,31.36,31.36S437.27,267.41,437.27,248.59Z"/><path class="cls-1" d="M249.09,436.77c18.82,0,31.36-12.54,31.36-31.36s-12.54-31.36-31.36-31.36H186.36c-18.81,0-31.36,12.54-31.36,31.36s12.55,31.36,31.36,31.36Z"/></g></g></svg>